<?xml version="1.0" encoding="us-ascii" standalone="no"?><svg xmlns="http://www.w3.org/2000/svg" xmlns:xlink="http://www.w3.org/1999/xlink" contentStyleType="text/css" height="429px" preserveAspectRatio="none" style="width:1533px;height:429px;background:#FFFFFF;" version="1.1" viewBox="0 0 1533 429" width="1533px" zoomAndPan="magnify"><defs/><g><ellipse cx="772.5" cy="20" fill="#222222" rx="10" ry="10" style="stroke:#222222;stroke-width:1.0;"/><rect fill="#F1F1F1" height="33.9688" rx="12.5" ry="12.5" style="stroke:#181818;stroke-width:0.5;" width="199" x="673" y="50"/><text fill="#000000" font-family="sans-serif" font-size="12" lengthAdjust="spacing" textLength="179" x="683" y="71.1387">Read l_supplyDcNotFiler_u16</text><rect fill="#F1F1F1" height="33.9688" rx="12.5" ry="12.5" style="stroke:#181818;stroke-width:0.5;" width="177" x="684" y="103.9688"/><text fill="#000000" font-family="sans-serif" font-size="12" lengthAdjust="spacing" textLength="157" x="694" y="125.1074">Read l_supplyDcFiler_u16</text><rect fill="#F1F1F1" height="33.9688" rx="12.5" ry="12.5" style="stroke:#181818;stroke-width:0.5;" width="294" x="625.5" y="157.9375"/><text fill="#000000" font-family="sans-serif" font-size="12" lengthAdjust="spacing" textLength="274" x="635.5" y="179.0762">Read limits (lower, midLow, midHigh, higher)</text><polygon fill="#F1F1F1" points="32,211.9063,428,211.9063,440,223.9063,428,235.9063,32,235.9063,20,223.9063,32,211.9063" style="stroke:#181818;stroke-width:0.5;"/><text fill="#000000" font-family="sans-serif" font-size="11" lengthAdjust="spacing" textLength="59" x="234" y="246.1167">LOW BAND</text><text fill="#000000" font-family="sans-serif" font-size="11" lengthAdjust="spacing" textLength="396" x="32" y="227.7144">l_supplyDcNotFiler_u16 &gt; lower &amp;&amp; l_supplyDcNotFiler_u16 &lt; midLow</text><rect fill="#F1F1F1" height="33.9688" rx="12.5" ry="12.5" style="stroke:#181818;stroke-width:0.5;" width="261" x="99.5" y="268.7109"/><text fill="#000000" font-family="sans-serif" font-size="12" lengthAdjust="spacing" textLength="241" x="109.5" y="289.8496">l_voltage_mV = l_supplyDcNotFiler_u16</text><polygon fill="#F1F1F1" points="472,211.9063,901,211.9063,913,223.9063,901,235.9063,472,235.9063,460,223.9063,472,211.9063" style="stroke:#181818;stroke-width:0.5;"/><text fill="#000000" font-family="sans-serif" font-size="11" lengthAdjust="spacing" textLength="76" x="690.5" y="246.1167">MIDDLE BAND</text><text fill="#000000" font-family="sans-serif" font-size="11" lengthAdjust="spacing" textLength="429" x="472" y="227.7144">l_supplyDcNotFiler_u16 &gt;= midLow &amp;&amp; l_supplyDcNotFiler_u16 &lt;= midHigh</text><rect fill="#F1F1F1" height="33.9688" rx="12.5" ry="12.5" style="stroke:#181818;stroke-width:0.5;" width="446" x="463.5" y="268.7109"/><text fill="#000000" font-family="sans-serif" font-size="12" lengthAdjust="spacing" textLength="426" x="473.5" y="289.8496">l_voltage_mV = (l_supplyDcFiler_u16 + l_supplyDcNotFiler_u16) &gt;&gt; 1</text><polygon fill="#F1F1F1" points="951.5,211.9063,1355.5,211.9063,1367.5,223.9063,1355.5,235.9063,951.5,235.9063,939.5,223.9063,951.5,211.9063" style="stroke:#181818;stroke-width:0.5;"/><text fill="#000000" font-family="sans-serif" font-size="11" lengthAdjust="spacing" textLength="63" x="1157.5" y="246.1167">HIGH BAND</text><text fill="#000000" font-family="sans-serif" font-size="11" lengthAdjust="spacing" textLength="404" x="951.5" y="227.7144">l_supplyDcNotFiler_u16 &gt; midHigh &amp;&amp; l_supplyDcNotFiler_u16 &lt; higher</text><text fill="#000000" font-family="sans-serif" font-size="11" lengthAdjust="spacing" textLength="85" x="1367.5" y="221.312">OUT OF RANGE</text><rect fill="#F1F1F1" height="33.9688" rx="12.5" ry="12.5" style="stroke:#181818;stroke-width:0.5;" width="446" x="930.5" y="268.7109"/><text fill="#000000" font-family="sans-serif" font-size="12" lengthAdjust="spacing" textLength="426" x="940.5" y="289.8496">l_voltage_mV = (l_supplyDcFiler_u16 + l_supplyDcNotFiler_u16) &gt;&gt; 1</text><rect fill="#F1F1F1" height="33.9688" rx="12.5" ry="12.5" style="stroke:#181818;stroke-width:0.5;" width="126" x="1396.5" y="265.3086"/><text fill="#000000" font-family="sans-serif" font-size="12" lengthAdjust="spacing" textLength="106" x="1406.5" y="286.4473">l_voltage_mV = 0</text><rect fill="#F1F1F1" height="33.9688" rx="12.5" ry="12.5" style="stroke:#181818;stroke-width:0.5;" width="143" x="701" y="342.6797"/><text fill="#000000" font-family="sans-serif" font-size="12" lengthAdjust="spacing" textLength="123" x="711" y="363.8184">return l_voltage_mV</text><ellipse cx="772.5" cy="407.6484" fill="none" rx="11" ry="11" style="stroke:#222222;stroke-width:1.0;"/><ellipse cx="772.5" cy="407.6484" fill="#222222" rx="6" ry="6" style="stroke:#222222;stroke-width:1.0;"/><line style="stroke:#181818;stroke-width:1.0;" x1="772.5" x2="772.5" y1="30" y2="50"/><polygon fill="#181818" points="768.5,40,772.5,50,776.5,40,772.5,44" style="stroke:#181818;stroke-width:1.0;"/><line style="stroke:#181818;stroke-width:1.0;" x1="772.5" x2="772.5" y1="83.9688" y2="103.9688"/><polygon fill="#181818" points="768.5,93.9688,772.5,103.9688,776.5,93.9688,772.5,97.9688" style="stroke:#181818;stroke-width:1.0;"/><line style="stroke:#181818;stroke-width:1.0;" x1="772.5" x2="772.5" y1="137.9375" y2="157.9375"/><polygon fill="#181818" points="768.5,147.9375,772.5,157.9375,776.5,147.9375,772.5,151.9375" style="stroke:#181818;stroke-width:1.0;"/><line style="stroke:#181818;stroke-width:1.0;" x1="230" x2="230" y1="235.9063" y2="268.7109"/><polygon fill="#181818" points="226,258.7109,230,268.7109,234,258.7109,230,262.7109" style="stroke:#181818;stroke-width:1.0;"/><line style="stroke:#181818;stroke-width:1.0;" x1="230" x2="230" y1="302.6797" y2="322.6797"/><polygon fill="#181818" points="226,312.6797,230,322.6797,234,312.6797,230,316.6797" style="stroke:#181818;stroke-width:1.0;"/><line style="stroke:#181818;stroke-width:1.0;" x1="686.5" x2="686.5" y1="235.9063" y2="268.7109"/><polygon fill="#181818" points="682.5,258.7109,686.5,268.7109,690.5,258.7109,686.5,262.7109" style="stroke:#181818;stroke-width:1.0;"/><line style="stroke:#181818;stroke-width:1.0;" x1="686.5" x2="686.5" y1="302.6797" y2="322.6797"/><polygon fill="#181818" points="682.5,312.6797,686.5,322.6797,690.5,312.6797,686.5,316.6797" style="stroke:#181818;stroke-width:1.0;"/><line style="stroke:#181818;stroke-width:1.0;" x1="1153.5" x2="1153.5" y1="235.9063" y2="268.7109"/><polygon fill="#181818" points="1149.5,258.7109,1153.5,268.7109,1157.5,258.7109,1153.5,262.7109" style="stroke:#181818;stroke-width:1.0;"/><line style="stroke:#181818;stroke-width:1.0;" x1="1153.5" x2="1153.5" y1="302.6797" y2="322.6797"/><polygon fill="#181818" points="1149.5,312.6797,1153.5,322.6797,1157.5,312.6797,1153.5,316.6797" style="stroke:#181818;stroke-width:1.0;"/><line style="stroke:#181818;stroke-width:1.0;" x1="440" x2="460" y1="223.9063" y2="223.9063"/><polygon fill="#181818" points="450,219.9063,460,223.9063,450,227.9063,454,223.9063" style="stroke:#181818;stroke-width:1.0;"/><line style="stroke:#181818;stroke-width:1.0;" x1="913" x2="939.5" y1="223.9063" y2="223.9063"/><polygon fill="#181818" points="929.5,219.9063,939.5,223.9063,929.5,227.9063,933.5,223.9063" style="stroke:#181818;stroke-width:1.0;"/><line style="stroke:#181818;stroke-width:1.0;" x1="772.5" x2="772.5" y1="191.9063" y2="196.9063"/><line style="stroke:#181818;stroke-width:1.0;" x1="772.5" x2="230" y1="196.9063" y2="196.9063"/><line style="stroke:#181818;stroke-width:1.0;" x1="230" x2="230" y1="196.9063" y2="211.9063"/><polygon fill="#181818" points="226,201.9063,230,211.9063,234,201.9063,230,205.9063" style="stroke:#181818;stroke-width:1.0;"/><line style="stroke:#181818;stroke-width:1.0;" x1="1367.5" x2="1459.5" y1="223.9063" y2="223.9063"/><line style="stroke:#181818;stroke-width:1.0;" x1="1459.5" x2="1459.5" y1="223.9063" y2="265.3086"/><polygon fill="#181818" points="1455.5,255.3086,1459.5,265.3086,1463.5,255.3086,1459.5,259.3086" style="stroke:#181818;stroke-width:1.0;"/><line style="stroke:#181818;stroke-width:1.0;" x1="1459.5" x2="1459.5" y1="299.2773" y2="322.6797"/><polygon fill="#181818" points="1455.5,312.6797,1459.5,322.6797,1463.5,312.6797,1459.5,316.6797" style="stroke:#181818;stroke-width:1.0;"/><line style="stroke:#181818;stroke-width:1.0;" x1="230" x2="1459.5" y1="322.6797" y2="322.6797"/><line style="stroke:#181818;stroke-width:1.0;" x1="772.5" x2="772.5" y1="322.6797" y2="342.6797"/><polygon fill="#181818" points="768.5,332.6797,772.5,342.6797,776.5,332.6797,772.5,336.6797" style="stroke:#181818;stroke-width:1.0;"/><line style="stroke:#181818;stroke-width:1.0;" x1="772.5" x2="772.5" y1="376.6484" y2="396.6484"/><polygon fill="#181818" points="768.5,386.6484,772.5,396.6484,776.5,386.6484,772.5,390.6484" style="stroke:#181818;stroke-width:1.0;"/><!--SRC=[jP11QuD048Nl-olUAIZDeRdae558COa1gn3QvYWI9t5XTMLtJUY_ZmI5GbHwoMNcC6_UVFEqoPHXpe6o72BLJLsBt-0KIxFbWbJQB9Rkq_Hvn4jkD2mXRwJcA7aUoTkZX_nIp56qbPJjCiRFhMhm37myrZ6RZO1WrJdRC0LLiABaY8zr7DWCS4HwbS9a5qhB7tYZlv3GX2aAhpionU7rh_Kad_iWY3QZCDP0TdWRiRVX-rZyWxI7c4oiYxxZ3FUxy0MKLlBzXMIBmphUROQitrjXbVCpOuuYqwWAVmKkqqRMTm00]--></g></svg>