<?xml version="1.0" encoding="UTF-8" standalone="no"?>
<!DOCTYPE svg PUBLIC "-//W3C//DTD SVG 1.1//EN"
 "http://www.w3.org/Graphics/SVG/1.1/DTD/svg11.dtd">
<!-- Generated by graphviz version 2.43.0 (0)
 -->
<!-- Title: EDD_Crc8ComputeInternal Pages: 1 -->
<svg width="282pt" height="64pt"
 viewBox="0.00 0.00 282.00 64.00" xmlns="http://www.w3.org/2000/svg" xmlns:xlink="http://www.w3.org/1999/xlink">
<g id="graph0" class="graph" transform="scale(1 1) rotate(0) translate(4 60)">
<title>EDD_Crc8ComputeInternal</title>
<!-- Node1 -->
<g id="Node000001" class="node">
<title>Node1</title>
<g id="a_Node000001"><a xlink:title="Compute CRC&#45;8 over a data buffer (private).">
<polygon fill="#999999" stroke="#666666" points="274,-37 128,-37 128,-18 274,-18 274,-37"/>
<text text-anchor="middle" x="201" y="-25" font-family="Helvetica,sans-Serif" font-size="10.00">EDD_Crc8ComputeInternal</text>
</a>
</g>
</g>
<!-- Node2 -->
<g id="Node000002" class="node">
<title>Node2</title>
<g id="a_Node000002"><a xlink:href="errorDataDetection_8c.html#ad3172747a1de5056f8c925135b9c326a" target="_top" xlink:title="Compute CRC&#45;8 (lookup table based) over a given data buffer.">
<polygon fill="white" stroke="#666666" points="89,-56 3,-56 3,-37 89,-37 89,-56"/>
<text text-anchor="middle" x="46" y="-44" font-family="Helvetica,sans-Serif" font-size="10.00">EDD_CalcCrc8</text>
</a>
</g>
</g>
<!-- Node1&#45;&gt;Node2 -->
<g id="edge1_Node000001_Node000002" class="edge">
<title>Node1&#45;&gt;Node2</title>
<g id="a_edge1_Node000001_Node000002"><a xlink:title=" ">
<path fill="none" stroke="#63b8ff" d="M117.97,-37.69C107.98,-38.93 98.12,-40.15 89.07,-41.28"/>
<polygon fill="#63b8ff" stroke="#63b8ff" points="118.49,-41.15 127.98,-36.44 117.63,-34.2 118.49,-41.15"/>
</a>
</g>
</g>
<!-- Node3 -->
<g id="Node000003" class="node">
<title>Node3</title>
<g id="a_Node000003"><a xlink:href="errorDataDetection_8c.html#afb5bf6ce5e59dad91ebb0d9331f4a595" target="_top" xlink:title="Verify that a buffer CRC matches an expected CRC.">
<polygon fill="white" stroke="#666666" points="92,-19 0,-19 0,0 92,0 92,-19"/>
<text text-anchor="middle" x="46" y="-7" font-family="Helvetica,sans-Serif" font-size="10.00">EDD_VerifyCrc8</text>
</a>
</g>
</g>
<!-- Node1&#45;&gt;Node3 -->
<g id="edge2_Node000001_Node000003" class="edge">
<title>Node1&#45;&gt;Node3</title>
<g id="a_edge2_Node000001_Node000003"><a xlink:title=" ">
<path fill="none" stroke="#63b8ff" d="M117.93,-17.84C109.04,-16.8 100.25,-15.76 92.04,-14.8"/>
<polygon fill="#63b8ff" stroke="#63b8ff" points="117.64,-21.33 127.98,-19.03 118.46,-14.38 117.64,-21.33"/>
</a>
</g>
</g>
</g>
</svg>
