<?xml version="1.0" encoding="UTF-8" standalone="no"?>
<!DOCTYPE svg PUBLIC "-//W3C//DTD SVG 1.1//EN"
 "http://www.w3.org/Graphics/SVG/1.1/DTD/svg11.dtd">
<!-- Generated by graphviz version 2.43.0 (0)
 -->
<!-- Title: pltf/errorDataDetection.c Pages: 1 -->
<svg width="146pt" height="137pt"
 viewBox="0.00 0.00 146.00 137.00" xmlns="http://www.w3.org/2000/svg" xmlns:xlink="http://www.w3.org/1999/xlink">
<g id="graph0" class="graph" transform="scale(1 1) rotate(0) translate(4 133)">
<title>pltf/errorDataDetection.c</title>
<!-- Node1 -->
<g id="Node000001" class="node">
<title>Node1</title>
<g id="a_Node000001"><a xlink:title="Error Data Detection module implementation.">
<polygon fill="#999999" stroke="#666666" points="138,-129 0,-129 0,-110 138,-110 138,-129"/>
<text text-anchor="middle" x="69" y="-117" font-family="Helvetica,sans-Serif" font-size="10.00">pltf/errorDataDetection.c</text>
</a>
</g>
</g>
<!-- Node2 -->
<g id="Node000002" class="node">
<title>Node2</title>
<g id="a_Node000002"><a xlink:href="errorDataDetection_8h.html" target="_top" xlink:title="Error Data Detection module public interface.">
<polygon fill="white" stroke="#666666" points="128.5,-74 9.5,-74 9.5,-55 128.5,-55 128.5,-74"/>
<text text-anchor="middle" x="69" y="-62" font-family="Helvetica,sans-Serif" font-size="10.00">errorDataDetection.h</text>
</a>
</g>
</g>
<!-- Node1&#45;&gt;Node2 -->
<g id="edge1_Node000001_Node000002" class="edge">
<title>Node1&#45;&gt;Node2</title>
<g id="a_edge1_Node000001_Node000002"><a xlink:title=" ">
<path fill="none" stroke="#63b8ff" d="M69,-109.75C69,-102.8 69,-92.85 69,-84.13"/>
<polygon fill="#63b8ff" stroke="#63b8ff" points="72.5,-84.09 69,-74.09 65.5,-84.09 72.5,-84.09"/>
</a>
</g>
</g>
<!-- Node3 -->
<g id="Node000003" class="node">
<title>Node3</title>
<g id="a_Node000003"><a xlink:title=" ">
<polygon fill="#e0e0e0" stroke="#999999" points="59.5,-19 6.5,-19 6.5,0 59.5,0 59.5,-19"/>
<text text-anchor="middle" x="33" y="-7" font-family="Helvetica,sans-Serif" font-size="10.00">stdint.h</text>
</a>
</g>
</g>
<!-- Node2&#45;&gt;Node3 -->
<g id="edge2_Node000002_Node000003" class="edge">
<title>Node2&#45;&gt;Node3</title>
<g id="a_edge2_Node000002_Node000003"><a xlink:title=" ">
<path fill="none" stroke="#63b8ff" d="M63.06,-54.75C58.02,-47.34 50.66,-36.5 44.49,-27.41"/>
<polygon fill="#63b8ff" stroke="#63b8ff" points="47.35,-25.39 38.83,-19.09 41.56,-29.33 47.35,-25.39"/>
</a>
</g>
</g>
<!-- Node4 -->
<g id="Node000004" class="node">
<title>Node4</title>
<g id="a_Node000004"><a xlink:title=" ">
<polygon fill="#e0e0e0" stroke="#999999" points="134,-19 78,-19 78,0 134,0 134,-19"/>
<text text-anchor="middle" x="106" y="-7" font-family="Helvetica,sans-Serif" font-size="10.00">stddef.h</text>
</a>
</g>
</g>
<!-- Node2&#45;&gt;Node4 -->
<g id="edge3_Node000002_Node000004" class="edge">
<title>Node2&#45;&gt;Node4</title>
<g id="a_edge3_Node000002_Node000004"><a xlink:title=" ">
<path fill="none" stroke="#63b8ff" d="M75.11,-54.75C80.28,-47.34 87.85,-36.5 94.19,-27.41"/>
<polygon fill="#63b8ff" stroke="#63b8ff" points="97.15,-29.29 100,-19.09 91.41,-25.29 97.15,-29.29"/>
</a>
</g>
</g>
</g>
</svg>
