<?xml version="1.0" encoding="us-ascii" standalone="no"?><svg xmlns="http://www.w3.org/2000/svg" xmlns:xlink="http://www.w3.org/1999/xlink" contentStyleType="text/css" height="822px" preserveAspectRatio="none" style="width:282px;height:822px;background:#FFFFFF;" version="1.1" viewBox="0 0 282 822" width="282px" zoomAndPan="magnify"><defs/><g><ellipse cx="133" cy="20" fill="#222222" rx="10" ry="10" style="stroke:#222222;stroke-width:1.0;"/><rect fill="#F1F1F1" height="33.9688" rx="12.5" ry="12.5" style="stroke:#181818;stroke-width:0.5;" width="127" x="69.5" y="50"/><text fill="#000000" font-family="sans-serif" font-size="12" lengthAdjust="spacing" textLength="107" x="79.5" y="71.1387">Validate pointers</text><rect fill="#F1F1F1" height="33.9688" rx="12.5" ry="12.5" style="stroke:#181818;stroke-width:0.5;" width="154" x="56" y="152.3711"/><text fill="#000000" font-family="sans-serif" font-size="12" lengthAdjust="spacing" textLength="134" x="66" y="173.5098">return EDD_NULL_PTR</text><ellipse cx="133" cy="225.8555" fill="none" rx="11" ry="11" style="stroke:#222222;stroke-width:1.0;"/><ellipse cx="133" cy="225.8555" fill="#222222" rx="6" ry="6" style="stroke:#222222;stroke-width:1.0;"/><polygon fill="#F1F1F1" points="34,103.9688,232,103.9688,244,115.9688,232,127.9688,34,127.9688,22,115.9688,34,103.9688" style="stroke:#181818;stroke-width:0.5;"/><text fill="#000000" font-family="sans-serif" font-size="11" lengthAdjust="spacing" textLength="22" x="137" y="138.1792">YES</text><text fill="#000000" font-family="sans-serif" font-size="11" lengthAdjust="spacing" textLength="198" x="34" y="119.7769">data == NULL OR crc_out == NULL</text><rect fill="#F1F1F1" height="33.9688" rx="12.5" ry="12.5" style="stroke:#181818;stroke-width:0.5;" width="115" x="75.5" y="278.8555"/><text fill="#000000" font-family="sans-serif" font-size="12" lengthAdjust="spacing" textLength="95" x="85.5" y="299.9941">Validate length</text><rect fill="#F1F1F1" height="33.9688" rx="12.5" ry="12.5" style="stroke:#181818;stroke-width:0.5;" width="195" x="35.5" y="381.2266"/><text fill="#000000" font-family="sans-serif" font-size="12" lengthAdjust="spacing" textLength="175" x="45.5" y="402.3652">return EDD_INVALID_LENGTH</text><ellipse cx="133" cy="454.7109" fill="none" rx="11" ry="11" style="stroke:#222222;stroke-width:1.0;"/><ellipse cx="133" cy="454.7109" fill="#222222" rx="6" ry="6" style="stroke:#222222;stroke-width:1.0;"/><polygon fill="#F1F1F1" points="99,332.8242,167,332.8242,179,344.8242,167,356.8242,99,356.8242,87,344.8242,99,332.8242" style="stroke:#181818;stroke-width:0.5;"/><text fill="#000000" font-family="sans-serif" font-size="11" lengthAdjust="spacing" textLength="22" x="137" y="367.0347">YES</text><text fill="#000000" font-family="sans-serif" font-size="11" lengthAdjust="spacing" textLength="68" x="99" y="348.6323">length == 0</text><rect fill="#F1F1F1" height="33.9688" rx="12.5" ry="12.5" style="stroke:#181818;stroke-width:0.5;" width="87" x="89.5" y="507.7109"/><text fill="#000000" font-family="sans-serif" font-size="12" lengthAdjust="spacing" textLength="67" x="99.5" y="528.8496">crc = 0x00</text><rect fill="#F1F1F1" height="33.9688" rx="12.5" ry="12.5" style="stroke:#181818;stroke-width:0.5;" width="194" x="36" y="605.6797"/><text fill="#000000" font-family="sans-serif" font-size="12" lengthAdjust="spacing" textLength="174" x="46" y="626.8184">crc = Table[crc XOR data[i]]</text><polygon fill="#F1F1F1" points="105.5,561.6797,160.5,561.6797,172.5,573.6797,160.5,585.6797,105.5,585.6797,93.5,573.6797,105.5,561.6797" style="stroke:#181818;stroke-width:0.5;"/><text fill="#000000" font-family="sans-serif" font-size="11" lengthAdjust="spacing" textLength="55" x="105.5" y="577.4878">i &lt; length</text><rect fill="#F1F1F1" height="33.9688" rx="12.5" ry="12.5" style="stroke:#181818;stroke-width:0.5;" width="115" x="75.5" y="681.6484"/><ellipse cx="91" cy="698.1172" fill="#000000" rx="2.5" ry="2.5" style="stroke:#000000;stroke-width:0.0;"/><text fill="#000000" font-family="sans-serif" font-size="12" lengthAdjust="spacing" textLength="83" x="97.5" y="702.7871">crc_out = crc</text><rect fill="#F1F1F1" height="33.9688" rx="12.5" ry="12.5" style="stroke:#181818;stroke-width:0.5;" width="111" x="77.5" y="735.6172"/><text fill="#000000" font-family="sans-serif" font-size="12" lengthAdjust="spacing" textLength="91" x="87.5" y="756.7559">return EDD_OK</text><ellipse cx="133" cy="800.5859" fill="none" rx="11" ry="11" style="stroke:#222222;stroke-width:1.0;"/><ellipse cx="133" cy="800.5859" fill="#222222" rx="6" ry="6" style="stroke:#222222;stroke-width:1.0;"/><line style="stroke:#181818;stroke-width:1.0;" x1="133" x2="133" y1="30" y2="50"/><polygon fill="#181818" points="129,40,133,50,137,40,133,44" style="stroke:#181818;stroke-width:1.0;"/><line style="stroke:#181818;stroke-width:1.0;" x1="133" x2="133" y1="186.3398" y2="214.8555"/><polygon fill="#181818" points="129,204.8555,133,214.8555,137,204.8555,133,208.8555" style="stroke:#181818;stroke-width:1.0;"/><line style="stroke:#181818;stroke-width:1.0;" x1="133" x2="133" y1="127.9688" y2="152.3711"/><polygon fill="#181818" points="129,142.3711,133,152.3711,137,142.3711,133,146.3711" style="stroke:#181818;stroke-width:1.0;"/><line style="stroke:#181818;stroke-width:1.0;" x1="244" x2="256" y1="115.9688" y2="115.9688"/><polygon fill="#181818" points="252,184.8555,256,194.8555,260,184.8555,256,188.8555" style="stroke:#181818;stroke-width:1.0;"/><line style="stroke:#181818;stroke-width:1.0;" x1="256" x2="256" y1="115.9688" y2="258.8555"/><line style="stroke:#181818;stroke-width:1.0;" x1="256" x2="133" y1="258.8555" y2="258.8555"/><line style="stroke:#181818;stroke-width:1.0;" x1="133" x2="133" y1="258.8555" y2="278.8555"/><polygon fill="#181818" points="129,268.8555,133,278.8555,137,268.8555,133,272.8555" style="stroke:#181818;stroke-width:1.0;"/><line style="stroke:#181818;stroke-width:1.0;" x1="133" x2="133" y1="83.9688" y2="103.9688"/><polygon fill="#181818" points="129,93.9688,133,103.9688,137,93.9688,133,97.9688" style="stroke:#181818;stroke-width:1.0;"/><line style="stroke:#181818;stroke-width:1.0;" x1="133" x2="133" y1="415.1953" y2="443.7109"/><polygon fill="#181818" points="129,433.7109,133,443.7109,137,433.7109,133,437.7109" style="stroke:#181818;stroke-width:1.0;"/><line style="stroke:#181818;stroke-width:1.0;" x1="133" x2="133" y1="356.8242" y2="381.2266"/><polygon fill="#181818" points="129,371.2266,133,381.2266,137,371.2266,133,375.2266" style="stroke:#181818;stroke-width:1.0;"/><line style="stroke:#181818;stroke-width:1.0;" x1="179" x2="240.5" y1="344.8242" y2="344.8242"/><polygon fill="#181818" points="236.5,413.7109,240.5,423.7109,244.5,413.7109,240.5,417.7109" style="stroke:#181818;stroke-width:1.0;"/><line style="stroke:#181818;stroke-width:1.0;" x1="240.5" x2="240.5" y1="344.8242" y2="487.7109"/><line style="stroke:#181818;stroke-width:1.0;" x1="240.5" x2="133" y1="487.7109" y2="487.7109"/><line style="stroke:#181818;stroke-width:1.0;" x1="133" x2="133" y1="487.7109" y2="507.7109"/><polygon fill="#181818" points="129,497.7109,133,507.7109,137,497.7109,133,501.7109" style="stroke:#181818;stroke-width:1.0;"/><line style="stroke:#181818;stroke-width:1.0;" x1="133" x2="133" y1="312.8242" y2="332.8242"/><polygon fill="#181818" points="129,322.8242,133,332.8242,137,322.8242,133,326.8242" style="stroke:#181818;stroke-width:1.0;"/><line style="stroke:#181818;stroke-width:1.0;" x1="133" x2="133" y1="585.6797" y2="605.6797"/><polygon fill="#181818" points="129,595.6797,133,605.6797,137,595.6797,133,599.6797" style="stroke:#181818;stroke-width:1.0;"/><line style="stroke:#181818;stroke-width:1.0;" x1="133" x2="133" y1="639.6484" y2="649.6484"/><line style="stroke:#181818;stroke-width:1.0;" x1="133" x2="242" y1="649.6484" y2="649.6484"/><polygon fill="#181818" points="238,620.6641,242,610.6641,246,620.6641,242,616.6641" style="stroke:#181818;stroke-width:1.0;"/><line style="stroke:#181818;stroke-width:1.0;" x1="242" x2="242" y1="573.6797" y2="649.6484"/><line style="stroke:#181818;stroke-width:1.0;" x1="242" x2="172.5" y1="573.6797" y2="573.6797"/><polygon fill="#181818" points="182.5,569.6797,172.5,573.6797,182.5,577.6797,178.5,573.6797" style="stroke:#181818;stroke-width:1.0;"/><line style="stroke:#181818;stroke-width:1.0;" x1="93.5" x2="24" y1="573.6797" y2="573.6797"/><polygon fill="#181818" points="20,606.6641,24,616.6641,28,606.6641,24,610.6641" style="stroke:#181818;stroke-width:1.0;"/><line style="stroke:#181818;stroke-width:1.0;" x1="24" x2="24" y1="573.6797" y2="661.6484"/><line style="stroke:#181818;stroke-width:1.0;" x1="24" x2="133" y1="661.6484" y2="661.6484"/><line style="stroke:#181818;stroke-width:1.0;" x1="133" x2="133" y1="661.6484" y2="681.6484"/><polygon fill="#181818" points="129,671.6484,133,681.6484,137,671.6484,133,675.6484" style="stroke:#181818;stroke-width:1.0;"/><line style="stroke:#181818;stroke-width:1.0;" x1="133" x2="133" y1="541.6797" y2="561.6797"/><polygon fill="#181818" points="129,551.6797,133,561.6797,137,551.6797,133,555.6797" style="stroke:#181818;stroke-width:1.0;"/><line style="stroke:#181818;stroke-width:1.0;" x1="133" x2="133" y1="715.6172" y2="735.6172"/><polygon fill="#181818" points="129,725.6172,133,735.6172,137,725.6172,133,729.6172" style="stroke:#181818;stroke-width:1.0;"/><line style="stroke:#181818;stroke-width:1.0;" x1="133" x2="133" y1="769.5859" y2="789.5859"/><polygon fill="#181818" points="129,779.5859,133,789.5859,137,779.5859,133,783.5859" style="stroke:#181818;stroke-width:1.0;"/><!--SRC=[VOz12u9048Nl-olcg9qykta8b8f4eomAYMNBDHUMLTQ9-ldjPeLqw3QycVdUUproWoJSSoKhZWAwLceKfgT4rk1PYKCKGRPBKyWtS34Nrjxm8_c0ZT3W7PEjJm128_1cD2HnpDoQhOiDjNgFRKU4hcGzCb92Nx4PR8RPKOC_o6MsdwNBcAL9DYyMls0R3Up_8mWekJTI2V0aJDysBzHmKV2p4gMR3xQGArZAquawpEkDX9DlIzUNad66V4M9Stq2]--></g></svg>