<?xml version="1.0" encoding="us-ascii" standalone="no"?><svg xmlns="http://www.w3.org/2000/svg" xmlns:xlink="http://www.w3.org/1999/xlink" contentStyleType="text/css" height="766px" preserveAspectRatio="none" style="width:343px;height:766px;background:#FFFFFF;" version="1.1" viewBox="0 0 343 766" width="343px" zoomAndPan="magnify"><defs/><g><ellipse cx="171.5" cy="20" fill="#222222" rx="10" ry="10" style="stroke:#222222;stroke-width:1.0;"/><rect fill="#F1F1F1" height="33.9688" rx="12.5" ry="12.5" style="stroke:#181818;stroke-width:0.5;" width="127" x="108" y="50"/><text fill="#000000" font-family="sans-serif" font-size="12" lengthAdjust="spacing" textLength="107" x="118" y="71.1387">Validate pointers</text><rect fill="#F1F1F1" height="33.9688" rx="12.5" ry="12.5" style="stroke:#181818;stroke-width:0.5;" width="154" x="94.5" y="152.3711"/><text fill="#000000" font-family="sans-serif" font-size="12" lengthAdjust="spacing" textLength="134" x="104.5" y="173.5098">return EDD_NULL_PTR</text><ellipse cx="171.5" cy="225.8555" fill="none" rx="11" ry="11" style="stroke:#222222;stroke-width:1.0;"/><ellipse cx="171.5" cy="225.8555" fill="#222222" rx="6" ry="6" style="stroke:#222222;stroke-width:1.0;"/><polygon fill="#F1F1F1" points="64.5,103.9688,278.5,103.9688,290.5,115.9688,278.5,127.9688,64.5,127.9688,52.5,115.9688,64.5,103.9688" style="stroke:#181818;stroke-width:0.5;"/><text fill="#000000" font-family="sans-serif" font-size="11" lengthAdjust="spacing" textLength="22" x="175.5" y="138.1792">YES</text><text fill="#000000" font-family="sans-serif" font-size="11" lengthAdjust="spacing" textLength="214" x="64.5" y="119.7769">data == NULL OR result_out == NULL</text><rect fill="#F1F1F1" height="33.9688" rx="12.5" ry="12.5" style="stroke:#181818;stroke-width:0.5;" width="115" x="114" y="278.8555"/><text fill="#000000" font-family="sans-serif" font-size="12" lengthAdjust="spacing" textLength="95" x="124" y="299.9941">Validate length</text><rect fill="#F1F1F1" height="33.9688" rx="12.5" ry="12.5" style="stroke:#181818;stroke-width:0.5;" width="195" x="74" y="381.2266"/><text fill="#000000" font-family="sans-serif" font-size="12" lengthAdjust="spacing" textLength="175" x="84" y="402.3652">return EDD_INVALID_LENGTH</text><ellipse cx="171.5" cy="454.7109" fill="none" rx="11" ry="11" style="stroke:#222222;stroke-width:1.0;"/><ellipse cx="171.5" cy="454.7109" fill="#222222" rx="6" ry="6" style="stroke:#222222;stroke-width:1.0;"/><polygon fill="#F1F1F1" points="137.5,332.8242,205.5,332.8242,217.5,344.8242,205.5,356.8242,137.5,356.8242,125.5,344.8242,137.5,332.8242" style="stroke:#181818;stroke-width:0.5;"/><text fill="#000000" font-family="sans-serif" font-size="11" lengthAdjust="spacing" textLength="22" x="175.5" y="367.0347">YES</text><text fill="#000000" font-family="sans-serif" font-size="11" lengthAdjust="spacing" textLength="68" x="137.5" y="348.6323">length == 0</text><rect fill="#F1F1F1" height="33.9688" rx="12.5" ry="12.5" style="stroke:#181818;stroke-width:0.5;" width="242" x="50.5" y="507.7109"/><text fill="#000000" font-family="sans-serif" font-size="12" lengthAdjust="spacing" textLength="222" x="60.5" y="528.8496">computed = CalcCrc8(data, length)</text><polygon fill="#F1F1F1" points="93.5,561.6797,249.5,561.6797,261.5,573.6797,249.5,585.6797,93.5,585.6797,81.5,573.6797,93.5,561.6797" style="stroke:#181818;stroke-width:0.5;"/><text fill="#000000" font-family="sans-serif" font-size="11" lengthAdjust="spacing" textLength="156" x="93.5" y="577.4878">computed == expected_crc</text><text fill="#000000" font-family="sans-serif" font-size="11" lengthAdjust="spacing" textLength="22" x="59.5" y="571.0854">YES</text><text fill="#000000" font-family="sans-serif" font-size="11" lengthAdjust="spacing" textLength="17" x="261.5" y="571.0854">NO</text><rect fill="#F1F1F1" height="33.9688" rx="12.5" ry="12.5" style="stroke:#181818;stroke-width:0.5;" width="121" x="11" y="595.6797"/><ellipse cx="26.5" cy="612.1484" fill="#000000" rx="2.5" ry="2.5" style="stroke:#000000;stroke-width:0.0;"/><text fill="#000000" font-family="sans-serif" font-size="12" lengthAdjust="spacing" textLength="89" x="33" y="616.8184">result_out = 1</text><rect fill="#F1F1F1" height="33.9688" rx="12.5" ry="12.5" style="stroke:#181818;stroke-width:0.5;" width="121" x="211" y="595.6797"/><ellipse cx="226.5" cy="612.1484" fill="#000000" rx="2.5" ry="2.5" style="stroke:#000000;stroke-width:0.0;"/><text fill="#000000" font-family="sans-serif" font-size="12" lengthAdjust="spacing" textLength="89" x="233" y="616.8184">result_out = 0</text><polygon fill="#F1F1F1" points="171.5,635.6484,183.5,647.6484,171.5,659.6484,159.5,647.6484,171.5,635.6484" style="stroke:#181818;stroke-width:0.5;"/><rect fill="#F1F1F1" height="33.9688" rx="12.5" ry="12.5" style="stroke:#181818;stroke-width:0.5;" width="111" x="116" y="679.6484"/><text fill="#000000" font-family="sans-serif" font-size="12" lengthAdjust="spacing" textLength="91" x="126" y="700.7871">return EDD_OK</text><ellipse cx="171.5" cy="744.6172" fill="none" rx="11" ry="11" style="stroke:#222222;stroke-width:1.0;"/><ellipse cx="171.5" cy="744.6172" fill="#222222" rx="6" ry="6" style="stroke:#222222;stroke-width:1.0;"/><line style="stroke:#181818;stroke-width:1.0;" x1="171.5" x2="171.5" y1="30" y2="50"/><polygon fill="#181818" points="167.5,40,171.5,50,175.5,40,171.5,44" style="stroke:#181818;stroke-width:1.0;"/><line style="stroke:#181818;stroke-width:1.0;" x1="171.5" x2="171.5" y1="186.3398" y2="214.8555"/><polygon fill="#181818" points="167.5,204.8555,171.5,214.8555,175.5,204.8555,171.5,208.8555" style="stroke:#181818;stroke-width:1.0;"/><line style="stroke:#181818;stroke-width:1.0;" x1="171.5" x2="171.5" y1="127.9688" y2="152.3711"/><polygon fill="#181818" points="167.5,142.3711,171.5,152.3711,175.5,142.3711,171.5,146.3711" style="stroke:#181818;stroke-width:1.0;"/><line style="stroke:#181818;stroke-width:1.0;" x1="290.5" x2="302.5" y1="115.9688" y2="115.9688"/><polygon fill="#181818" points="298.5,184.8555,302.5,194.8555,306.5,184.8555,302.5,188.8555" style="stroke:#181818;stroke-width:1.0;"/><line style="stroke:#181818;stroke-width:1.0;" x1="302.5" x2="302.5" y1="115.9688" y2="258.8555"/><line style="stroke:#181818;stroke-width:1.0;" x1="302.5" x2="171.5" y1="258.8555" y2="258.8555"/><line style="stroke:#181818;stroke-width:1.0;" x1="171.5" x2="171.5" y1="258.8555" y2="278.8555"/><polygon fill="#181818" points="167.5,268.8555,171.5,278.8555,175.5,268.8555,171.5,272.8555" style="stroke:#181818;stroke-width:1.0;"/><line style="stroke:#181818;stroke-width:1.0;" x1="171.5" x2="171.5" y1="83.9688" y2="103.9688"/><polygon fill="#181818" points="167.5,93.9688,171.5,103.9688,175.5,93.9688,171.5,97.9688" style="stroke:#181818;stroke-width:1.0;"/><line style="stroke:#181818;stroke-width:1.0;" x1="171.5" x2="171.5" y1="415.1953" y2="443.7109"/><polygon fill="#181818" points="167.5,433.7109,171.5,443.7109,175.5,433.7109,171.5,437.7109" style="stroke:#181818;stroke-width:1.0;"/><line style="stroke:#181818;stroke-width:1.0;" x1="171.5" x2="171.5" y1="356.8242" y2="381.2266"/><polygon fill="#181818" points="167.5,371.2266,171.5,381.2266,175.5,371.2266,171.5,375.2266" style="stroke:#181818;stroke-width:1.0;"/><line style="stroke:#181818;stroke-width:1.0;" x1="217.5" x2="279" y1="344.8242" y2="344.8242"/><polygon fill="#181818" points="275,413.7109,279,423.7109,283,413.7109,279,417.7109" style="stroke:#181818;stroke-width:1.0;"/><line style="stroke:#181818;stroke-width:1.0;" x1="279" x2="279" y1="344.8242" y2="487.7109"/><line style="stroke:#181818;stroke-width:1.0;" x1="279" x2="171.5" y1="487.7109" y2="487.7109"/><line style="stroke:#181818;stroke-width:1.0;" x1="171.5" x2="171.5" y1="487.7109" y2="507.7109"/><polygon fill="#181818" points="167.5,497.7109,171.5,507.7109,175.5,497.7109,171.5,501.7109" style="stroke:#181818;stroke-width:1.0;"/><line style="stroke:#181818;stroke-width:1.0;" x1="171.5" x2="171.5" y1="312.8242" y2="332.8242"/><polygon fill="#181818" points="167.5,322.8242,171.5,332.8242,175.5,322.8242,171.5,326.8242" style="stroke:#181818;stroke-width:1.0;"/><line style="stroke:#181818;stroke-width:1.0;" x1="81.5" x2="71.5" y1="573.6797" y2="573.6797"/><line style="stroke:#181818;stroke-width:1.0;" x1="71.5" x2="71.5" y1="573.6797" y2="595.6797"/><polygon fill="#181818" points="67.5,585.6797,71.5,595.6797,75.5,585.6797,71.5,589.6797" style="stroke:#181818;stroke-width:1.0;"/><line style="stroke:#181818;stroke-width:1.0;" x1="261.5" x2="271.5" y1="573.6797" y2="573.6797"/><line style="stroke:#181818;stroke-width:1.0;" x1="271.5" x2="271.5" y1="573.6797" y2="595.6797"/><polygon fill="#181818" points="267.5,585.6797,271.5,595.6797,275.5,585.6797,271.5,589.6797" style="stroke:#181818;stroke-width:1.0;"/><line style="stroke:#181818;stroke-width:1.0;" x1="71.5" x2="71.5" y1="629.6484" y2="647.6484"/><line style="stroke:#181818;stroke-width:1.0;" x1="71.5" x2="159.5" y1="647.6484" y2="647.6484"/><polygon fill="#181818" points="149.5,643.6484,159.5,647.6484,149.5,651.6484,153.5,647.6484" style="stroke:#181818;stroke-width:1.0;"/><line style="stroke:#181818;stroke-width:1.0;" x1="271.5" x2="271.5" y1="629.6484" y2="647.6484"/><line style="stroke:#181818;stroke-width:1.0;" x1="271.5" x2="183.5" y1="647.6484" y2="647.6484"/><polygon fill="#181818" points="193.5,643.6484,183.5,647.6484,193.5,651.6484,189.5,647.6484" style="stroke:#181818;stroke-width:1.0;"/><line style="stroke:#181818;stroke-width:1.0;" x1="171.5" x2="171.5" y1="541.6797" y2="561.6797"/><polygon fill="#181818" points="167.5,551.6797,171.5,561.6797,175.5,551.6797,171.5,555.6797" style="stroke:#181818;stroke-width:1.0;"/><line style="stroke:#181818;stroke-width:1.0;" x1="171.5" x2="171.5" y1="659.6484" y2="679.6484"/><polygon fill="#181818" points="167.5,669.6484,171.5,679.6484,175.5,669.6484,171.5,673.6484" style="stroke:#181818;stroke-width:1.0;"/><line style="stroke:#181818;stroke-width:1.0;" x1="171.5" x2="171.5" y1="713.6172" y2="733.6172"/><polygon fill="#181818" points="167.5,723.6172,171.5,733.6172,175.5,723.6172,171.5,727.6172" style="stroke:#181818;stroke-width:1.0;"/><!--SRC=[VOz12u9048Nl-olcgD6XRj7Y8L8g4WspeDEoh5C9sogx8_JpqooIY6wFDyFxtdCaBR7vKUgoa8HGLwKXj8wpyWnUQqa80aWESGnf1XPTeqbK3RrT7-YA1hnJjFSPmDmYDTP058QYEujTdl7MTrJL34rHdWSiZUP2rvxKwovryYToanmNyIOKSPIiylLtiAfkTKDOG01BgTNIgjbpmVX5ydlKvoq0lDUeMYsKLT_SqN0jJ3b3xH2y9FrndV1tYK7RTCjPr-y1]--></g></svg>