<?xml version="1.0" encoding="us-ascii" standalone="no"?><svg xmlns="http://www.w3.org/2000/svg" xmlns:xlink="http://www.w3.org/1999/xlink" contentStyleType="text/css" height="473px" preserveAspectRatio="none" style="width:220px;height:473px;background:#FFFFFF;" version="1.1" viewBox="0 0 220 473" width="220px" zoomAndPan="magnify"><defs/><g><ellipse cx="107.5" cy="20" fill="#222222" rx="10" ry="10" style="stroke:#222222;stroke-width:1.0;"/><rect fill="#F1F1F1" height="33.9688" rx="12.5" ry="12.5" style="stroke:#181818;stroke-width:0.5;" width="187" x="14" y="50"/><text fill="#000000" font-family="sans-serif" font-size="12" lengthAdjust="spacing" textLength="167" x="24" y="71.1387">Validate crc_in_out pointer</text><rect fill="#F1F1F1" height="33.9688" rx="12.5" ry="12.5" style="stroke:#181818;stroke-width:0.5;" width="154" x="30.5" y="152.3711"/><text fill="#000000" font-family="sans-serif" font-size="12" lengthAdjust="spacing" textLength="134" x="40.5" y="173.5098">return EDD_NULL_PTR</text><ellipse cx="107.5" cy="225.8555" fill="none" rx="11" ry="11" style="stroke:#222222;stroke-width:1.0;"/><ellipse cx="107.5" cy="225.8555" fill="#222222" rx="6" ry="6" style="stroke:#222222;stroke-width:1.0;"/><polygon fill="#F1F1F1" points="52,103.9688,163,103.9688,175,115.9688,163,127.9688,52,127.9688,40,115.9688,52,103.9688" style="stroke:#181818;stroke-width:0.5;"/><text fill="#000000" font-family="sans-serif" font-size="11" lengthAdjust="spacing" textLength="22" x="111.5" y="138.1792">YES</text><text fill="#000000" font-family="sans-serif" font-size="11" lengthAdjust="spacing" textLength="111" x="52" y="119.7769">crc_in_out == NULL</text><rect fill="#F1F1F1" height="33.9688" rx="12.5" ry="12.5" style="stroke:#181818;stroke-width:0.5;" width="193" x="11" y="278.8555"/><text fill="#000000" font-family="sans-serif" font-size="12" lengthAdjust="spacing" textLength="173" x="21" y="299.9941">idx = (*crc_in_out) XOR byte</text><rect fill="#F1F1F1" height="33.9688" rx="12.5" ry="12.5" style="stroke:#181818;stroke-width:0.5;" width="174" x="20.5" y="332.8242"/><ellipse cx="36" cy="349.293" fill="#000000" rx="2.5" ry="2.5" style="stroke:#000000;stroke-width:0.0;"/><text fill="#000000" font-family="sans-serif" font-size="12" lengthAdjust="spacing" textLength="142" x="42.5" y="353.9629">crc_in_out = Table[idx]</text><rect fill="#F1F1F1" height="33.9688" rx="12.5" ry="12.5" style="stroke:#181818;stroke-width:0.5;" width="111" x="52" y="386.793"/><text fill="#000000" font-family="sans-serif" font-size="12" lengthAdjust="spacing" textLength="91" x="62" y="407.9316">return EDD_OK</text><ellipse cx="107.5" cy="451.7617" fill="none" rx="11" ry="11" style="stroke:#222222;stroke-width:1.0;"/><ellipse cx="107.5" cy="451.7617" fill="#222222" rx="6" ry="6" style="stroke:#222222;stroke-width:1.0;"/><line style="stroke:#181818;stroke-width:1.0;" x1="107.5" x2="107.5" y1="30" y2="50"/><polygon fill="#181818" points="103.5,40,107.5,50,111.5,40,107.5,44" style="stroke:#181818;stroke-width:1.0;"/><line style="stroke:#181818;stroke-width:1.0;" x1="107.5" x2="107.5" y1="186.3398" y2="214.8555"/><polygon fill="#181818" points="103.5,204.8555,107.5,214.8555,111.5,204.8555,107.5,208.8555" style="stroke:#181818;stroke-width:1.0;"/><line style="stroke:#181818;stroke-width:1.0;" x1="107.5" x2="107.5" y1="127.9688" y2="152.3711"/><polygon fill="#181818" points="103.5,142.3711,107.5,152.3711,111.5,142.3711,107.5,146.3711" style="stroke:#181818;stroke-width:1.0;"/><line style="stroke:#181818;stroke-width:1.0;" x1="175" x2="194.5" y1="115.9688" y2="115.9688"/><polygon fill="#181818" points="190.5,184.8555,194.5,194.8555,198.5,184.8555,194.5,188.8555" style="stroke:#181818;stroke-width:1.0;"/><line style="stroke:#181818;stroke-width:1.0;" x1="194.5" x2="194.5" y1="115.9688" y2="258.8555"/><line style="stroke:#181818;stroke-width:1.0;" x1="194.5" x2="107.5" y1="258.8555" y2="258.8555"/><line style="stroke:#181818;stroke-width:1.0;" x1="107.5" x2="107.5" y1="258.8555" y2="278.8555"/><polygon fill="#181818" points="103.5,268.8555,107.5,278.8555,111.5,268.8555,107.5,272.8555" style="stroke:#181818;stroke-width:1.0;"/><line style="stroke:#181818;stroke-width:1.0;" x1="107.5" x2="107.5" y1="83.9688" y2="103.9688"/><polygon fill="#181818" points="103.5,93.9688,107.5,103.9688,111.5,93.9688,107.5,97.9688" style="stroke:#181818;stroke-width:1.0;"/><line style="stroke:#181818;stroke-width:1.0;" x1="107.5" x2="107.5" y1="312.8242" y2="332.8242"/><polygon fill="#181818" points="103.5,322.8242,107.5,332.8242,111.5,322.8242,107.5,326.8242" style="stroke:#181818;stroke-width:1.0;"/><line style="stroke:#181818;stroke-width:1.0;" x1="107.5" x2="107.5" y1="366.793" y2="386.793"/><polygon fill="#181818" points="103.5,376.793,107.5,386.793,111.5,376.793,107.5,380.793" style="stroke:#181818;stroke-width:1.0;"/><line style="stroke:#181818;stroke-width:1.0;" x1="107.5" x2="107.5" y1="420.7617" y2="440.7617"/><polygon fill="#181818" points="103.5,430.7617,107.5,440.7617,111.5,430.7617,107.5,434.7617" style="stroke:#181818;stroke-width:1.0;"/><!--SRC=[JOt12e9054NtxolkKls46TpfAiamYo9Y6FM90pBA-8Jw-tILstEuvovYWv2wsz5rLXXjQ8tpPbe5y-IySD3aUaG7dgOutueYXWpi4JtpQqo02YnhyCYppEpQNEfARtoHQIRsdUj9kUw3557oZyLub1MQhx0cbHnFKDjcvDSsUM_g42zFclRe3m00]--></g></svg>