<?xml version="1.0" encoding="us-ascii" standalone="no"?><svg xmlns="http://www.w3.org/2000/svg" xmlns:xlink="http://www.w3.org/1999/xlink" contentStyleType="text/css" height="362px" preserveAspectRatio="none" style="width:663px;height:362px;background:#FFFFFF;" version="1.1" viewBox="0 0 663 362" width="663px" zoomAndPan="magnify"><defs/><g><ellipse cx="319.75" cy="20" fill="#222222" rx="10" ry="10" style="stroke:#222222;stroke-width:1.0;"/><rect fill="#F1F1F1" height="33.9688" rx="12.5" ry="12.5" style="stroke:#181818;stroke-width:0.5;" width="303" x="168.25" y="50"/><text fill="#000000" font-family="sans-serif" font-size="12" lengthAdjust="spacing" textLength="283" x="178.25" y="71.1387">l_handler = SubfunctionRequestOutOfRange_</text><polygon fill="#F1F1F1" points="257.25,103.9688,382.25,103.9688,394.25,115.9688,382.25,127.9688,257.25,127.9688,245.25,115.9688,257.25,103.9688" style="stroke:#181818;stroke-width:0.5;"/><text fill="#000000" font-family="sans-serif" font-size="11" lengthAdjust="spacing" textLength="125" x="257.25" y="119.7769">l_did_cu16 == 0xF308</text><text fill="#000000" font-family="sans-serif" font-size="11" lengthAdjust="spacing" textLength="22" x="223.25" y="113.3745">YES</text><text fill="#000000" font-family="sans-serif" font-size="11" lengthAdjust="spacing" textLength="17" x="394.25" y="113.3745">NO</text><rect fill="#F1F1F1" height="33.9688" rx="12.5" ry="12.5" style="stroke:#181818;stroke-width:0.5;" width="242" x="33.5" y="137.9688"/><text fill="#000000" font-family="sans-serif" font-size="12" lengthAdjust="spacing" textLength="218" x="47.5" y="159.1074">*l_diagBufSize_u8 = DID_F308_SIZE</text><rect fill="#F1F1F1" height="33.9688" rx="12.5" ry="12.5" style="stroke:#181818;stroke-width:0.5;" width="287" x="11" y="191.9375"/><text fill="#000000" font-family="sans-serif" font-size="12" lengthAdjust="spacing" textLength="267" x="21" y="213.0762">l_handler = RdbiVhitOverVoltageFaultDiag_</text><rect fill="#F1F1F1" height="33.9688" rx="12.5" ry="12.5" style="stroke:#181818;stroke-width:0.5;" width="214" x="378" y="137.9688"/><text fill="#000000" font-family="sans-serif" font-size="12" lengthAdjust="spacing" textLength="190" x="392" y="159.1074">*l_didSupported_) = E_NOT_OK</text><rect fill="#F1F1F1" height="33.9688" rx="12.5" ry="12.5" style="stroke:#181818;stroke-width:0.5;" width="334" x="318" y="191.9375"/><text fill="#000000" font-family="sans-serif" font-size="12" lengthAdjust="spacing" textLength="310" x="332" y="213.0762">*l_errCode_u8 = kLinDiagNrcRequestOutOfRange"</text><polygon fill="#F1F1F1" points="319.75,231.9063,331.75,243.9063,319.75,255.9063,307.75,243.9063,319.75,231.9063" style="stroke:#181818;stroke-width:0.5;"/><rect fill="#F1F1F1" height="33.9688" rx="12.5" ry="12.5" style="stroke:#181818;stroke-width:0.5;" width="425" x="107.25" y="275.9063"/><text fill="#000000" font-family="sans-serif" font-size="12" lengthAdjust="spacing" textLength="405" x="117.25" y="297.0449">return l_handler(l_diagBuf_pu8, l_diagBufSize_u8, &amp;l_errCode_u8)</text><ellipse cx="319.75" cy="340.875" fill="none" rx="11" ry="11" style="stroke:#222222;stroke-width:1.0;"/><ellipse cx="319.75" cy="340.875" fill="#222222" rx="6" ry="6" style="stroke:#222222;stroke-width:1.0;"/><line style="stroke:#181818;stroke-width:1.0;" x1="319.75" x2="319.75" y1="30" y2="50"/><polygon fill="#181818" points="315.75,40,319.75,50,323.75,40,319.75,44" style="stroke:#181818;stroke-width:1.0;"/><line style="stroke:#181818;stroke-width:1.0;" x1="154.5" x2="154.5" y1="171.9375" y2="191.9375"/><polygon fill="#181818" points="150.5,181.9375,154.5,191.9375,158.5,181.9375,154.5,185.9375" style="stroke:#181818;stroke-width:1.0;"/><line style="stroke:#181818;stroke-width:1.0;" x1="485" x2="485" y1="171.9375" y2="191.9375"/><polygon fill="#181818" points="481,181.9375,485,191.9375,489,181.9375,485,185.9375" style="stroke:#181818;stroke-width:1.0;"/><line style="stroke:#181818;stroke-width:1.0;" x1="245.25" x2="154.5" y1="115.9688" y2="115.9688"/><line style="stroke:#181818;stroke-width:1.0;" x1="154.5" x2="154.5" y1="115.9688" y2="137.9688"/><polygon fill="#181818" points="150.5,127.9688,154.5,137.9688,158.5,127.9688,154.5,131.9688" style="stroke:#181818;stroke-width:1.0;"/><line style="stroke:#181818;stroke-width:1.0;" x1="394.25" x2="485" y1="115.9688" y2="115.9688"/><line style="stroke:#181818;stroke-width:1.0;" x1="485" x2="485" y1="115.9688" y2="137.9688"/><polygon fill="#181818" points="481,127.9688,485,137.9688,489,127.9688,485,131.9688" style="stroke:#181818;stroke-width:1.0;"/><line style="stroke:#181818;stroke-width:1.0;" x1="154.5" x2="154.5" y1="225.9063" y2="243.9063"/><line style="stroke:#181818;stroke-width:1.0;" x1="154.5" x2="307.75" y1="243.9063" y2="243.9063"/><polygon fill="#181818" points="297.75,239.9063,307.75,243.9063,297.75,247.9063,301.75,243.9063" style="stroke:#181818;stroke-width:1.0;"/><line style="stroke:#181818;stroke-width:1.0;" x1="485" x2="485" y1="225.9063" y2="243.9063"/><line style="stroke:#181818;stroke-width:1.0;" x1="485" x2="331.75" y1="243.9063" y2="243.9063"/><polygon fill="#181818" points="341.75,239.9063,331.75,243.9063,341.75,247.9063,337.75,243.9063" style="stroke:#181818;stroke-width:1.0;"/><line style="stroke:#181818;stroke-width:1.0;" x1="319.75" x2="319.75" y1="83.9688" y2="103.9688"/><polygon fill="#181818" points="315.75,93.9688,319.75,103.9688,323.75,93.9688,319.75,97.9688" style="stroke:#181818;stroke-width:1.0;"/><line style="stroke:#181818;stroke-width:1.0;" x1="319.75" x2="319.75" y1="255.9063" y2="275.9063"/><polygon fill="#181818" points="315.75,265.9063,319.75,275.9063,323.75,265.9063,319.75,269.9063" style="stroke:#181818;stroke-width:1.0;"/><line style="stroke:#181818;stroke-width:1.0;" x1="319.75" x2="319.75" y1="309.875" y2="329.875"/><polygon fill="#181818" points="315.75,319.875,319.75,329.875,323.75,319.875,319.75,323.875" style="stroke:#181818;stroke-width:1.0;"/><!--SRC=[POzHIuH054RVvrTSUWYDVTW8GXHVIXUMmW6DXNgvp3fN7Hf66-z4zEjJg6Lftm_dVD_CohD8BGxAQKiUScZ2iGkkPJEwcZu2pIm3owvMhYVCX30TH1QrqTY6stl8SzX-xUwsIGmya8FejMnY0P32pKgf_Y5qZVac3CaYB_O5hZ0s-xSoMx7pTAsFvZ0Obf_a3wDbrTDE1Sl5ebdIP6U2g99dUjs4QHezayPu4PHOoHUKJzaVGTu_Zlet_lvitAggV7lnx6hHEsqw8L9F7Bo3qx3ez0Eda6pW_wqDN9-7uapCF4u_]--></g></svg>