<?xml version="1.0" encoding="us-ascii" standalone="no"?><svg xmlns="http://www.w3.org/2000/svg" xmlns:xlink="http://www.w3.org/1999/xlink" contentStyleType="text/css" height="913px" preserveAspectRatio="none" style="width:598px;height:913px;background:#FFFFFF;" version="1.1" viewBox="0 0 598 913" width="598px" zoomAndPan="magnify"><defs/><g><ellipse cx="311.5" cy="20" fill="#222222" rx="10" ry="10" style="stroke:#222222;stroke-width:1.0;"/><rect fill="#F1F1F1" height="33.9688" rx="12.5" ry="12.5" style="stroke:#181818;stroke-width:0.5;" width="245" x="189" y="50"/><text fill="#000000" font-family="sans-serif" font-size="12" lengthAdjust="spacing" textLength="225" x="199" y="71.1387">Read DID from pbLinDiagBuffer[1..2]</text><rect fill="#F1F1F1" height="33.9688" rx="12.5" ry="12.5" style="stroke:#181818;stroke-width:0.5;" width="113" x="255" y="103.9688"/><text fill="#000000" font-family="sans-serif" font-size="12" lengthAdjust="spacing" textLength="93" x="265" y="125.1074">l_result = E_OK</text><rect fill="#F1F1F1" height="33.9688" rx="12.5" ry="12.5" style="stroke:#181818;stroke-width:0.5;" width="105" x="259" y="157.9375"/><text fill="#000000" font-family="sans-serif" font-size="12" lengthAdjust="spacing" textLength="85" x="269" y="179.0762">l_errCode = 0</text><rect fill="#F1F1F1" height="33.9688" rx="12.5" ry="12.5" style="stroke:#181818;stroke-width:0.5;" width="220" x="201.5" y="211.9063"/><text fill="#000000" font-family="sans-serif" font-size="12" lengthAdjust="spacing" textLength="200" x="211.5" y="233.0449">l_diagBuf = &amp;pbLinDiagBuffer[3]</text><rect fill="#F1F1F1" height="33.9688" rx="12.5" ry="12.5" style="stroke:#181818;stroke-width:0.5;" width="126" x="248.5" y="265.875"/><text fill="#000000" font-family="sans-serif" font-size="12" lengthAdjust="spacing" textLength="106" x="258.5" y="287.0137">l_diagBufSize = 0</text><rect fill="#F1F1F1" height="33.9688" rx="12.5" ry="12.5" style="stroke:#181818;stroke-width:0.5;" width="210" x="206.5" y="319.8438"/><text fill="#000000" font-family="sans-serif" font-size="12" lengthAdjust="spacing" textLength="190" x="216.5" y="340.9824">checkCurrentNad(0, &amp;l_result)</text><rect fill="#F1F1F1" height="33.9688" rx="12.5" ry="12.5" style="stroke:#181818;stroke-width:0.5;" width="387" x="118" y="422.2148"/><text fill="#000000" font-family="sans-serif" font-size="12" lengthAdjust="spacing" textLength="367" x="128" y="443.3535">checkMsgDataLength(g_linDiagDataLength_u16, &amp;l_result)</text><polygon fill="#F1F1F1" points="263,373.8125,360,373.8125,372,385.8125,360,397.8125,263,397.8125,251,385.8125,263,373.8125" style="stroke:#181818;stroke-width:0.5;"/><text fill="#000000" font-family="sans-serif" font-size="11" lengthAdjust="spacing" textLength="16" x="315.5" y="408.0229">OK</text><text fill="#000000" font-family="sans-serif" font-size="11" lengthAdjust="spacing" textLength="97" x="263" y="389.6206">l_result == E_OK</text><polygon fill="#F1F1F1" points="311.5,476.1836,323.5,488.1836,311.5,500.1836,299.5,488.1836,311.5,476.1836" style="stroke:#181818;stroke-width:0.5;"/><rect fill="#F1F1F1" height="75.875" rx="12.5" ry="12.5" style="stroke:#181818;stroke-width:0.5;" width="308" x="157.5" y="568.5859"/><text fill="#000000" font-family="sans-serif" font-size="12" lengthAdjust="spacing" textLength="288" x="167.5" y="589.7246">getHandlersForReadDataById(l_errCode, l_did,</text><text fill="#000000" font-family="sans-serif" font-size="12" lengthAdjust="spacing" textLength="94" x="279.5" y="603.6934">&amp;l_diagBufSize,</text><text fill="#000000" font-family="sans-serif" font-size="12" lengthAdjust="spacing" textLength="108" x="279.5" y="617.6621">&amp;l_didSupported,</text><text fill="#000000" font-family="sans-serif" font-size="12" lengthAdjust="spacing" textLength="61" x="279.5" y="631.6309">l_diagBuf)</text><polygon fill="#F1F1F1" points="263,520.1836,360,520.1836,372,532.1836,360,544.1836,263,544.1836,251,532.1836,263,520.1836" style="stroke:#181818;stroke-width:0.5;"/><text fill="#000000" font-family="sans-serif" font-size="11" lengthAdjust="spacing" textLength="16" x="315.5" y="554.394">OK</text><text fill="#000000" font-family="sans-serif" font-size="11" lengthAdjust="spacing" textLength="97" x="263" y="535.9917">l_result == E_OK</text><polygon fill="#F1F1F1" points="311.5,664.4609,323.5,676.4609,311.5,688.4609,299.5,676.4609,311.5,664.4609" style="stroke:#181818;stroke-width:0.5;"/><polygon fill="#F1F1F1" points="263,708.4609,360,708.4609,372,720.4609,360,732.4609,263,732.4609,251,720.4609,263,708.4609" style="stroke:#181818;stroke-width:0.5;"/><text fill="#000000" font-family="sans-serif" font-size="11" lengthAdjust="spacing" textLength="97" x="263" y="724.269">l_result == E_OK</text><text fill="#000000" font-family="sans-serif" font-size="11" lengthAdjust="spacing" textLength="24" x="227" y="717.8667">POS</text><text fill="#000000" font-family="sans-serif" font-size="11" lengthAdjust="spacing" textLength="24" x="372" y="717.8667">NEG</text><rect fill="#F1F1F1" height="33.9688" rx="12.5" ry="12.5" style="stroke:#181818;stroke-width:0.5;" width="303" x="11" y="742.4609"/><text fill="#000000" font-family="sans-serif" font-size="12" lengthAdjust="spacing" textLength="283" x="21" y="763.5996">g_linDiagDataLength_u16 = l_diagBufSize + 2</text><rect fill="#F1F1F1" height="33.9688" rx="12.5" ry="12.5" style="stroke:#181818;stroke-width:0.5;" width="192" x="66.5" y="796.4297"/><text fill="#000000" font-family="sans-serif" font-size="12" lengthAdjust="spacing" textLength="172" x="76.5" y="817.5684">LinDiagSendPosResponse()</text><rect fill="#F1F1F1" height="33.9688" rx="12.5" ry="12.5" style="stroke:#181818;stroke-width:0.5;" width="253" x="334" y="742.4609"/><text fill="#000000" font-family="sans-serif" font-size="12" lengthAdjust="spacing" textLength="233" x="344" y="763.5996">LinDiagSendNegResponse(l_errCode)</text><polygon fill="#F1F1F1" points="311.5,836.3984,323.5,848.3984,311.5,860.3984,299.5,848.3984,311.5,836.3984" style="stroke:#181818;stroke-width:0.5;"/><ellipse cx="311.5" cy="891.3984" fill="none" rx="11" ry="11" style="stroke:#222222;stroke-width:1.0;"/><ellipse cx="311.5" cy="891.3984" fill="#222222" rx="6" ry="6" style="stroke:#222222;stroke-width:1.0;"/><line style="stroke:#181818;stroke-width:1.0;" x1="311.5" x2="311.5" y1="30" y2="50"/><polygon fill="#181818" points="307.5,40,311.5,50,315.5,40,311.5,44" style="stroke:#181818;stroke-width:1.0;"/><line style="stroke:#181818;stroke-width:1.0;" x1="311.5" x2="311.5" y1="83.9688" y2="103.9688"/><polygon fill="#181818" points="307.5,93.9688,311.5,103.9688,315.5,93.9688,311.5,97.9688" style="stroke:#181818;stroke-width:1.0;"/><line style="stroke:#181818;stroke-width:1.0;" x1="311.5" x2="311.5" y1="137.9375" y2="157.9375"/><polygon fill="#181818" points="307.5,147.9375,311.5,157.9375,315.5,147.9375,311.5,151.9375" style="stroke:#181818;stroke-width:1.0;"/><line style="stroke:#181818;stroke-width:1.0;" x1="311.5" x2="311.5" y1="191.9063" y2="211.9063"/><polygon fill="#181818" points="307.5,201.9063,311.5,211.9063,315.5,201.9063,311.5,205.9063" style="stroke:#181818;stroke-width:1.0;"/><line style="stroke:#181818;stroke-width:1.0;" x1="311.5" x2="311.5" y1="245.875" y2="265.875"/><polygon fill="#181818" points="307.5,255.875,311.5,265.875,315.5,255.875,311.5,259.875" style="stroke:#181818;stroke-width:1.0;"/><line style="stroke:#181818;stroke-width:1.0;" x1="311.5" x2="311.5" y1="299.8438" y2="319.8438"/><polygon fill="#181818" points="307.5,309.8438,311.5,319.8438,315.5,309.8438,311.5,313.8438" style="stroke:#181818;stroke-width:1.0;"/><line style="stroke:#181818;stroke-width:1.0;" x1="311.5" x2="311.5" y1="397.8125" y2="422.2148"/><polygon fill="#181818" points="307.5,412.2148,311.5,422.2148,315.5,412.2148,311.5,416.2148" style="stroke:#181818;stroke-width:1.0;"/><line style="stroke:#181818;stroke-width:1.0;" x1="372" x2="515" y1="385.8125" y2="385.8125"/><polygon fill="#181818" points="511,429.1992,515,439.1992,519,429.1992,515,433.1992" style="stroke:#181818;stroke-width:1.0;"/><line style="stroke:#181818;stroke-width:1.0;" x1="515" x2="515" y1="385.8125" y2="488.1836"/><line style="stroke:#181818;stroke-width:1.0;" x1="515" x2="323.5" y1="488.1836" y2="488.1836"/><polygon fill="#181818" points="333.5,484.1836,323.5,488.1836,333.5,492.1836,329.5,488.1836" style="stroke:#181818;stroke-width:1.0;"/><line style="stroke:#181818;stroke-width:1.0;" x1="311.5" x2="311.5" y1="456.1836" y2="476.1836"/><polygon fill="#181818" points="307.5,466.1836,311.5,476.1836,315.5,466.1836,311.5,470.1836" style="stroke:#181818;stroke-width:1.0;"/><line style="stroke:#181818;stroke-width:1.0;" x1="311.5" x2="311.5" y1="353.8125" y2="373.8125"/><polygon fill="#181818" points="307.5,363.8125,311.5,373.8125,315.5,363.8125,311.5,367.8125" style="stroke:#181818;stroke-width:1.0;"/><line style="stroke:#181818;stroke-width:1.0;" x1="311.5" x2="311.5" y1="544.1836" y2="568.5859"/><polygon fill="#181818" points="307.5,558.5859,311.5,568.5859,315.5,558.5859,311.5,562.5859" style="stroke:#181818;stroke-width:1.0;"/><line style="stroke:#181818;stroke-width:1.0;" x1="372" x2="475.5" y1="532.1836" y2="532.1836"/><polygon fill="#181818" points="471.5,596.5234,475.5,606.5234,479.5,596.5234,475.5,600.5234" style="stroke:#181818;stroke-width:1.0;"/><line style="stroke:#181818;stroke-width:1.0;" x1="475.5" x2="475.5" y1="532.1836" y2="676.4609"/><line style="stroke:#181818;stroke-width:1.0;" x1="475.5" x2="323.5" y1="676.4609" y2="676.4609"/><polygon fill="#181818" points="333.5,672.4609,323.5,676.4609,333.5,680.4609,329.5,676.4609" style="stroke:#181818;stroke-width:1.0;"/><line style="stroke:#181818;stroke-width:1.0;" x1="311.5" x2="311.5" y1="644.4609" y2="664.4609"/><polygon fill="#181818" points="307.5,654.4609,311.5,664.4609,315.5,654.4609,311.5,658.4609" style="stroke:#181818;stroke-width:1.0;"/><line style="stroke:#181818;stroke-width:1.0;" x1="311.5" x2="311.5" y1="500.1836" y2="520.1836"/><polygon fill="#181818" points="307.5,510.1836,311.5,520.1836,315.5,510.1836,311.5,514.1836" style="stroke:#181818;stroke-width:1.0;"/><line style="stroke:#181818;stroke-width:1.0;" x1="162.5" x2="162.5" y1="776.4297" y2="796.4297"/><polygon fill="#181818" points="158.5,786.4297,162.5,796.4297,166.5,786.4297,162.5,790.4297" style="stroke:#181818;stroke-width:1.0;"/><line style="stroke:#181818;stroke-width:1.0;" x1="251" x2="162.5" y1="720.4609" y2="720.4609"/><line style="stroke:#181818;stroke-width:1.0;" x1="162.5" x2="162.5" y1="720.4609" y2="742.4609"/><polygon fill="#181818" points="158.5,732.4609,162.5,742.4609,166.5,732.4609,162.5,736.4609" style="stroke:#181818;stroke-width:1.0;"/><line style="stroke:#181818;stroke-width:1.0;" x1="372" x2="460.5" y1="720.4609" y2="720.4609"/><line style="stroke:#181818;stroke-width:1.0;" x1="460.5" x2="460.5" y1="720.4609" y2="742.4609"/><polygon fill="#181818" points="456.5,732.4609,460.5,742.4609,464.5,732.4609,460.5,736.4609" style="stroke:#181818;stroke-width:1.0;"/><line style="stroke:#181818;stroke-width:1.0;" x1="162.5" x2="162.5" y1="830.3984" y2="848.3984"/><line style="stroke:#181818;stroke-width:1.0;" x1="162.5" x2="299.5" y1="848.3984" y2="848.3984"/><polygon fill="#181818" points="289.5,844.3984,299.5,848.3984,289.5,852.3984,293.5,848.3984" style="stroke:#181818;stroke-width:1.0;"/><line style="stroke:#181818;stroke-width:1.0;" x1="460.5" x2="460.5" y1="776.4297" y2="848.3984"/><line style="stroke:#181818;stroke-width:1.0;" x1="460.5" x2="323.5" y1="848.3984" y2="848.3984"/><polygon fill="#181818" points="333.5,844.3984,323.5,848.3984,333.5,852.3984,329.5,848.3984" style="stroke:#181818;stroke-width:1.0;"/><line style="stroke:#181818;stroke-width:1.0;" x1="311.5" x2="311.5" y1="688.4609" y2="708.4609"/><polygon fill="#181818" points="307.5,698.4609,311.5,708.4609,315.5,698.4609,311.5,702.4609" style="stroke:#181818;stroke-width:1.0;"/><line style="stroke:#181818;stroke-width:1.0;" x1="311.5" x2="311.5" y1="860.3984" y2="880.3984"/><polygon fill="#181818" points="307.5,870.3984,311.5,880.3984,315.5,870.3984,311.5,874.3984" style="stroke:#181818;stroke-width:1.0;"/><!--SRC=[ZP71Jy8m5CRl_IlUQUdYGW0J3oDUOAX478GT2LagVUiMPxkqtK7_UZk6mn6Zwwbz-Txtw_kUiKnR4kwGSOXM4MHQlKFrkYvaL30nhxCCzNuo6aqFCnAMgKPJbnRkOPbkdayLr7gXEBhI-FJcRPjxUzSsjuUVYgJuF7UHy9ZZyMrHQutInepJSG3UDyoVaI83Uc6tS1ziZXAekn60rk75Y8XPjaOfR4v5MhRuIosj9tTzQvIyoCWGWa3xn2GlKPi7fPl06j_vnuhJBeK0cl5uuFH_7QyNmY0rJ-ggKjhYl-QTzx3fjfka7U_tjDo6-XkxWUciqPzNcpZ4LfaTcaf9WxI1bWQ1nij7_qeNe-XqNMJTBurLrHS0]--></g></svg>